<svg width="23" height="26" viewBox="0 0 23 26" fill="none" xmlns="http://www.w3.org/2000/svg">
<path d="M6.69819e-06 14.5191C-0.00298383 12.2605 0.666332 10.0513 1.92401 8.16856C3.18168 6.28585 4.97173 4.81343 7.06963 3.936C7.16232 3.89459 7.26241 3.87198 7.36403 3.86949C7.46565 3.86699 7.56674 3.88467 7.66138 3.92147C7.75602 3.95828 7.84229 4.01347 7.91513 4.08381C7.98797 4.15415 8.0459 4.23822 8.08553 4.33109C8.12516 4.42395 8.14569 4.52373 8.1459 4.62457C8.14612 4.72541 8.12603 4.82528 8.0868 4.91831C8.04757 5.01134 7.99 5.09565 7.91747 5.1663C7.84494 5.23695 7.7589 5.29251 7.66443 5.32972C5.84273 6.09147 4.28835 7.36995 3.19632 9.00476C2.10428 10.6396 1.52322 12.5579 1.52603 14.5191C1.52603 19.9925 5.99307 24.4473 11.5003 24.4881C17.0069 24.4453 21.4746 19.9925 21.4746 14.5191C21.4773 12.5577 20.8961 10.6393 19.8038 9.00448C18.7115 7.36966 17.1569 6.09127 15.3349 5.32972C15.2398 5.29302 15.153 5.23775 15.0798 5.1672C15.0066 5.09664 14.9484 5.01223 14.9086 4.91896C14.8689 4.82568 14.8484 4.72545 14.8484 4.62418C14.8484 4.52292 14.8689 4.42269 14.9087 4.32942C14.9484 4.23615 15.0067 4.15175 15.0799 4.08121C15.1531 4.01066 15.2399 3.95541 15.335 3.91873C15.4302 3.88204 15.5318 3.86467 15.6338 3.86763C15.7358 3.8706 15.8362 3.89385 15.929 3.936C18.0273 4.81308 19.8177 6.28537 21.0757 8.16814C22.3336 10.0509 23.003 12.2603 23 14.5191C23 20.7842 17.9166 25.8925 11.6288 25.9999C11.612 25.9999 11.5952 25.9999 11.5784 25.9999L11.4263 25.9999C11.4088 25.9999 11.392 25.9999 11.3752 25.9999C5.08338 25.8905 6.15065e-06 20.7821 6.69819e-06 14.5191Z" fill="white"/>
<path d="M11.5495 16.5104C11.3471 16.5104 11.1531 16.4307 11.01 16.2887C10.8669 16.1468 10.7865 15.9542 10.7865 15.7535L10.7865 0.756935C10.7865 0.556184 10.8669 0.363654 11.01 0.221701C11.1531 0.0797484 11.3471 -8.43957e-08 11.5495 -6.67045e-08C11.7519 -4.90134e-08 11.9459 0.0797484 12.089 0.221701C12.2321 0.363654 12.3125 0.556184 12.3125 0.756935L12.3125 15.7535C12.3125 15.9542 12.2321 16.1468 12.089 16.2887C11.9459 16.4307 11.7519 16.5104 11.5495 16.5104Z" fill="white"/>
</svg>
